<svg width="128" height="128" viewBox="0 0 128 128" fill="none" xmlns="http://www.w3.org/2000/svg">
<path d="M29 22.5H100C100.828 22.5 101.5 23.1716 101.5 24V75.0978C101.5 75.8521 100.966 76.4219 100.299 76.5015C94.428 77.2015 81.2734 78.5 64.5 78.5C47.7266 78.5 34.572 77.2015 28.7006 76.5015C28.0336 76.4219 27.5 75.8521 27.5 75.0978V24C27.5 23.1716 28.1716 22.5 29 22.5Z" stroke="#495057" stroke-width="5"/>
<rect x="18.5" y="13.5" width="91" height="97" rx="7.5" stroke="#495057" stroke-width="5"/>
<path d="M42.5 12.5H86.5V9C86.5 7.067 84.933 5.5 83 5.5H46C44.067 5.5 42.5 7.067 42.5 9V12.5Z" stroke="#495057" stroke-width="5"/>
<path fill-rule="evenodd" clip-rule="evenodd" d="M120 48V29H119V48H120ZM114 29V50C114 51.6569 115.343 53 117 53H122C123.657 53 125 51.6569 125 50V27C125 25.3431 123.657 24 122 24H121H117H108V29H114Z" fill="#495057"/>
<path fill-rule="evenodd" clip-rule="evenodd" d="M8 48V29H9V48H8ZM14 29V50C14 51.6569 12.6569 53 11 53H6C4.34315 53 3 51.6569 3 50V27C3 25.3431 4.34315 24 6 24H7H11H20V29H14Z" fill="#495057"/>
<path d="M27.5 111.5H46.5V119C46.5 120.933 44.933 122.5 43 122.5H31C29.067 122.5 27.5 120.933 27.5 119V111.5Z" stroke="#495057" stroke-width="5"/>
<path d="M82.5 111.5H101.5V119C101.5 120.933 99.933 122.5 98 122.5H86C84.067 122.5 82.5 120.933 82.5 119V111.5Z" stroke="#495057" stroke-width="5"/>
<path d="M50 93H65H80" stroke="#495057" stroke-width="4" stroke-linecap="round"/>
<path d="M55 100L64.5 100L74 100" stroke="#495057" stroke-width="4" stroke-linecap="round"/>
<path d="M27 91.2491L39.6217 92.734C40.2909 92.8127 40.8755 93.2232 41.1769 93.8259L44.7639 101L27 101L27 91.2491Z" stroke="#495057" stroke-width="4"/>
<path d="M102 91.2491L89.3783 92.734C88.7091 92.8127 88.1245 93.2232 87.8231 93.8259L84.2361 101L102 101L102 91.2491Z" stroke="#495057" stroke-width="4"/>
<path d="M62.738 71.5191C63.7998 71.2146 64.4138 70.1071 64.1093 69.0453C63.8048 67.9835 62.6973 67.3696 61.6355 67.674L62.738 71.5191ZM37.7452 78.6856L62.738 71.5191L61.6355 67.674L36.6427 74.8406L37.7452 78.6856Z" fill="#495057"/>
<path d="M88.7382 72.1593C89.8 71.8549 90.4139 70.7473 90.1094 69.6855C89.805 68.6238 88.6974 68.0098 87.6356 68.3143L88.7382 72.1593ZM63.7454 79.3259L88.7382 72.1593L87.6356 68.3143L62.6428 75.4809L63.7454 79.3259Z" fill="#495057"/>
</svg>
