<svg width="16" height="16" viewBox="0 0 16 16" fill="none" xmlns="http://www.w3.org/2000/svg">
<mask id="path-1-inside-1_238_199" fill="white">
<rect width="7" height="7" rx="1"/>
</mask>
<rect width="7" height="7" rx="1" stroke="#212529" stroke-width="3" mask="url(#path-1-inside-1_238_199)"/>
<mask id="path-2-inside-2_238_199" fill="white">
<path d="M0 10C0 9.44772 0.447715 9 1 9H6C6.55228 9 7 9.44772 7 10V15C7 15.5523 6.55228 16 6 16H2C0.89543 16 0 15.1046 0 14V10Z"/>
</mask>
<path d="M0 10C0 9.44772 0.447715 9 1 9H6C6.55228 9 7 9.44772 7 10V15C7 15.5523 6.55228 16 6 16H2C0.89543 16 0 15.1046 0 14V10Z" stroke="#212529" stroke-width="3" mask="url(#path-2-inside-2_238_199)"/>
<mask id="path-3-inside-3_238_199" fill="white">
<path d="M9 1C9 0.447715 9.44772 0 10 0H13C14.6569 0 16 1.34315 16 3V6C16 6.55228 15.5523 7 15 7H10C9.44772 7 9 6.55228 9 6V1Z"/>
</mask>
<path d="M9 1C9 0.447715 9.44772 0 10 0H13C14.6569 0 16 1.34315 16 3V6C16 6.55228 15.5523 7 15 7H10C9.44772 7 9 6.55228 9 6V1Z" stroke="#F40009" stroke-width="3" mask="url(#path-3-inside-3_238_199)"/>
<mask id="path-4-inside-4_238_199" fill="white">
<rect x="9" y="9" width="7" height="7" rx="1"/>
</mask>
<rect x="9" y="9" width="7" height="7" rx="1" stroke="#212529" stroke-width="3" mask="url(#path-4-inside-4_238_199)"/>
</svg>
